<?xml version="1.0" standalone="no"?>
<!DOCTYPE svg PUBLIC "-//W3C//DTD SVG 20010904//EN"
 "http://www.w3.org/TR/2001/REC-SVG-20010904/DTD/svg10.dtd">
<svg version="1.0" xmlns="http://www.w3.org/2000/svg"
 width="950.000000pt" height="1280.000000pt" viewBox="0 0 950.000000 1280.000000"
 preserveAspectRatio="xMidYMid meet">
<metadata>
Created by potrace 1.15, written by Peter Selinger 2001-2017
</metadata>
<g transform="translate(0.000000,1280.000000) scale(0.100000,-0.100000)"
fill="#000000" stroke="none">
<path d="M0 6400 l0 -6400 4750 0 4750 0 0 6400 0 6400 -4750 0 -4750 0 0
-6400z m8800 0 l0 -5700 -4050 0 -4050 0 0 5700 0 5700 4050 0 4050 0 0 -5700z"/>
<path d="M7680 11565 c-8 -2 -48 -9 -89 -15 -286 -47 -489 -212 -536 -437 -43
-201 8 -386 144 -521 78 -77 159 -126 368 -220 81 -37 174 -82 207 -100 201
-114 220 -283 41 -372 l-70 -35 -145 0 c-120 0 -159 4 -223 23 -91 26 -214 86
-280 136 l-47 36 0 -224 0 -225 78 -29 c200 -77 487 -99 743 -56 170 28 293
86 390 183 111 112 155 238 146 421 -8 162 -57 272 -165 372 -75 70 -148 113
-357 210 -228 107 -258 124 -313 179 -71 73 -77 156 -16 227 109 128 427 132
677 9 l87 -43 0 206 0 206 -55 18 c-112 35 -202 47 -385 51 -102 2 -192 2
-200 0z"/>
<path d="M1170 10540 l0 -1000 215 0 215 0 -1 528 c-1 290 -4 608 -8 707 -3
99 -6 181 -5 183 1 2 26 -37 56 -85 30 -48 238 -368 462 -710 l409 -623 228 0
229 0 0 1000 0 1000 -215 0 -215 0 1 -597 c0 -329 4 -640 7 -691 4 -50 5 -92
2 -92 -3 0 -27 38 -55 84 -27 45 -228 356 -445 689 l-395 607 -242 0 -243 0 0
-1000z"/>
<path d="M3180 10540 l0 -1000 600 0 600 0 0 180 0 180 -375 0 -375 0 0 230 0
230 330 0 330 0 -2 183 -3 182 -327 3 -328 2 0 220 0 220 351 2 351 3 0 130
c-1 89 2 124 8 110 9 -18 75 -267 392 -1482 l103 -393 261 0 261 0 26 98 c206
769 321 1216 336 1302 l17 105 12 -90 c7 -49 88 -387 182 -750 93 -363 170
-661 170 -662 0 -2 113 -2 252 -1 l251 3 258 975 c142 536 261 985 264 998 l5
22 -227 -2 -228 -3 -92 -445 c-132 -638 -201 -986 -209 -1055 l-7 -60 -13 90
c-6 50 -88 402 -181 782 l-168 693 -241 0 -242 0 -6 -24 c-3 -14 -89 -328
-190 -698 -101 -370 -190 -711 -197 -758 l-13 -85 -9 75 c-11 91 -64 357 -200
1000 l-103 485 -812 3 -812 2 0 -1000z"/>
<path d="M1110 8548 l0 -353 3605 3 3605 2 0 350 0 350 -3605 0 -3605 0 0
-352z"/>
<path d="M1110 7190 l0 -350 3605 0 3605 0 0 350 0 350 -3605 0 -3605 0 0
-350z"/>
<path d="M1110 5875 l0 -355 3605 0 3605 0 0 355 0 355 -3605 0 -3605 0 0
-355z"/>
<path d="M1110 4520 l0 -350 3605 0 3605 0 0 350 0 350 -3605 0 -3605 0 0
-350z"/>
<path d="M1110 3178 l0 -353 3605 3 3605 2 0 350 0 350 -3605 0 -3605 0 0
-352z"/>
<path d="M1110 1820 l0 -350 3605 0 3605 0 0 350 0 350 -3605 0 -3605 0 0
-350z"/>
</g>
</svg>
