<svg xmlns="http://www.w3.org/2000/svg" viewBox="0 0 176.35 52.12"><defs><style>.cls-1{fill:#2c73e8}.cls-2{fill:#fff}</style></defs><g id="Layer_2" data-name="Layer 2"><g id="Layer_1-2" data-name="Layer 1"><path class="cls-1" d="M1.5 1.5h102.7v49.12H1.5z"/><path class="cls-1" d="M105.7 52.12H0V0h105.7ZM3 49.12h99.7V3H3Z"/><path class="cls-2" d="M8.92 39.35V12.09h4.23l13.53 19.1h.17v-19.1h4.68v27.26h-4.19L13.8 20.23h-.17v19.12ZM52 33.36c-.58 3.74-4.17 6.29-8.86 6.29-6 0-9.63-3.91-9.63-10.23S37.2 19 43 19s9.23 3.83 9.23 9.91v1.53h-14v.29c0 3.15 2 5.25 5 5.25 2.13 0 3.85-1 4.36-2.65Zm-13.77-6h9.35A4.5 4.5 0 0 0 43 22.67a4.72 4.72 0 0 0-4.78 4.71ZM75.34 39.35h-5l-3.89-14.64h-.1l-3.93 14.64h-4.91l-5.42-20h4.72l3.38 15.38h.1l3.91-15.4h4.51l3.91 15.38h.12l3.38-15.38h4.65ZM89.25 19c4.7 0 7.93 2.48 8 6.16h-4.37c-.12-1.68-1.55-2.72-3.73-2.72s-3.43.95-3.43 2.36c0 1.12.9 1.86 2.87 2.33l3.57.79c4 .95 5.57 2.46 5.57 5.42 0 3.74-3.51 6.27-8.56 6.27s-8.23-2.47-8.54-6.23h4.63c.27 1.79 1.72 2.8 4.08 2.8s3.71-.91 3.71-2.38c0-1.14-.74-1.74-2.69-2.23l-3.64-.85c-3.72-.83-5.58-2.72-5.58-5.59 0-3.65 3.24-6.13 8.11-6.13Z"/><path class="cls-1" d="M129.18 32.31h-10l-2.33 7h-5l9.67-27.26H127l9.67 27.26h-5.17Zm-8.9-3.76H128l-3.8-11.64h-.13ZM148.6 12.09c5.42 0 9.18 3.69 9.18 9.13s-3.87 9.12-9.39 9.12h-5.51v9H138V12.09Zm-5.72 14.32h4.42c3.49 0 5.53-1.89 5.53-5.19s-2-5.14-5.51-5.14h-4.44ZM159.78 39.35V12.09h4.88v27.26Z"/><path class="cls-1" d="M176.35 52.12H102.7V0h73.65Zm-70.65-3h67.65V3H105.7Z"/></g></g></svg>